<?xml version="1.0" standalone="no"?><!DOCTYPE svg PUBLIC "-//W3C//DTD SVG 1.1//EN" "http://www.w3.org/Graphics/SVG/1.1/DTD/svg11.dtd"><svg t="1731314729851" class="icon" viewBox="0 0 1024 1024" version="1.1" xmlns="http://www.w3.org/2000/svg" p-id="1565" data-spm-anchor-id="a313x.search_index.0.i2.75f53a81Y4oUNQ" xmlns:xlink="http://www.w3.org/1999/xlink" width="130px" height="130px"><path d="M512 512m-508 0a508 508 0 1 0 1016 0 508 508 0 1 0-1016 0Z" fill="#1296db" p-id="1566" data-spm-anchor-id="a313x.search_index.0.i0.75f53a81Y4oUNQ" class=""></path><path d="M292.4 664h106v66.8H292.4z" fill="#BCBFC2" p-id="1567"></path><path d="M398.4 730.8H220.4v36h249.6v-36zM577.6 257.2h244.8v509.6h-244.8z" fill="#EDF0F2" p-id="1568" data-spm-anchor-id="a313x.search_index.0.i3.75f53a81Y4oUNQ" class=""></path><path d="M601.6 281.2h196v48h-196zM601.6 350.4h196v48h-196z" fill="#BCBFC2" p-id="1569"></path><path d="M610.4 632.8h178.4v3.6h-178.4zM610.4 647.6h178.4v3.6h-178.4zM610.4 662h178.4v3.6h-178.4zM610.4 676.4h178.4v3.6h-178.4zM610.4 691.2h178.4v3.6h-178.4zM610.4 705.6h178.4v3.6h-178.4zM610.4 720.4h178.4v3.6h-178.4zM610.4 734.8h178.4v3.6h-178.4z" fill="#527F99" p-id="1570"></path><path d="M699.6 558m-54.4 0a54.4 54.4 0 1 0 108.8 0 54.4 54.4 0 1 0-108.8 0Z" fill="#677B83" p-id="1571"></path><path d="M699.6 558m-31.2 0a31.2 31.2 0 1 0 62.4 0 31.2 31.2 0 1 0-62.4 0Z" fill="#2C424F" p-id="1572"></path><path d="M699.6 558m-9.2 0a9.2 9.2 0 1 0 18.4 0 9.2 9.2 0 1 0-18.4 0Z" fill="#FFCA0D" p-id="1573"></path><path d="M699.6 471.2m-15.6 0a15.6 15.6 0 1 0 31.2 0 15.6 15.6 0 1 0-31.2 0Z" fill="#E65336" p-id="1574"></path><path d="M699.6 435.6m-8.4 0a8.4 8.4 0 1 0 16.8 0 8.4 8.4 0 1 0-16.8 0Z" fill="#39B39B" p-id="1575"></path><path d="M536.8 400.4H153.6c-5.2 0-9.2 4.4-9.2 9.2v250.8c0 5.2 4.4 9.2 9.2 9.2h383.2c5.2 0 9.2-4.4 9.2-9.2v-250.8c0.4-4.8-4-9.2-9.2-9.2z" fill="#EDF0F2" p-id="1576"></path><path d="M156.4 412.4h378v245.6H156.4z" fill="#527F99" p-id="1577"></path></svg>